<?xml version="1.0" standalone="no"?>
<!DOCTYPE svg PUBLIC "-//W3C//DTD SVG 20010904//EN"
 "http://www.w3.org/TR/2001/REC-SVG-20010904/DTD/svg10.dtd">
<svg version="1.0" xmlns="http://www.w3.org/2000/svg"
 width="128.000000pt" height="128.000000pt" viewBox="0 0 128.000000 128.000000"
 preserveAspectRatio="xMidYMid meet">
<metadata>
Created by potrace 1.14, written by Peter Selinger 2001-2017
</metadata>
<g transform="translate(0.000000,128.000000) scale(0.100000,-0.100000)"
fill="#000000" stroke="none">
<path d="M378 1263 c-21 -5 -27 -34 -23 -103 2 -30 7 -99 10 -152 l6 -98 -45
0 -46 0 0 -40 0 -40 45 0 c38 0 45 -3 45 -20 0 -13 -7 -20 -20 -20 -31 0 -60
-36 -60 -72 0 -43 33 -96 65 -104 14 -3 25 -13 25 -22 0 -44 99 -182 130 -182
6 0 10 -6 10 -14 0 -17 -92 -96 -111 -96 -30 0 -117 -49 -156 -88 -40 -40 -86
-120 -99 -175 l-6 -27 491 0 c317 0 491 4 491 10 0 22 -40 113 -64 144 l-24
33 25 44 c14 24 43 78 65 119 23 41 47 85 55 97 13 19 12 23 -8 37 -12 8 -26
13 -30 10 -5 -2 -38 -55 -75 -117 -37 -62 -71 -117 -76 -124 -7 -8 -23 -5 -61
13 -29 13 -58 24 -66 24 -19 0 -111 79 -111 96 0 8 4 14 10 14 32 0 129 135
130 180 0 9 14 21 30 27 76 29 74 173 -2 173 -11 0 -18 7 -18 20 0 17 7 20 45
20 l45 0 0 40 0 40 -45 0 -44 0 4 88 c3 48 7 121 9 162 7 116 21 110 -278 109
-138 -1 -258 -3 -268 -6z"/>
<path d="M1151 950 c-7 -20 -21 -34 -41 -41 -38 -14 -38 -24 -2 -37 18 -6 34
-22 42 -41 16 -38 25 -39 38 -3 6 18 22 34 41 42 39 16 39 25 1 39 -20 7 -34
21 -41 41 -6 16 -15 30 -19 30 -4 0 -13 -14 -19 -30z"/>
<path d="M1075 780 c-4 -11 -18 -26 -32 -34 l-26 -13 26 -18 c14 -9 29 -25 32
-36 8 -23 25 -25 25 -4 0 9 13 24 30 33 36 21 37 26 6 40 -13 6 -27 20 -31 31
-8 27 -22 27 -30 1z"/>
<path d="M1172 636 c-6 -13 -20 -27 -31 -31 -28 -8 -26 -19 3 -33 13 -6 27
-20 31 -31 8 -27 22 -27 30 0 4 11 18 25 31 31 31 14 30 19 -6 40 -17 9 -30
24 -30 33 0 23 -15 18 -28 -9z"/>
</g>
</svg>
